<mxfile host="65bd71144e">
    <diagram id="R-BRPoTpZyhLY2aqib3g" name="Page-1">
        <mxGraphModel dx="849" dy="562" grid="1" gridSize="10" guides="1" tooltips="1" connect="1" arrows="1" fold="1" page="1" pageScale="1" pageWidth="827" pageHeight="1169" math="0" shadow="0">
            <root>
                <mxCell id="0"/>
                <mxCell id="1" parent="0"/>
                <mxCell id="eWRBQ8og8PCyrHXCpCZj-6" value="Usersテーブル" style="swimlane;" parent="1" vertex="1">
                    <mxGeometry x="300" y="10" width="200" height="200" as="geometry"/>
                </mxCell>
                <mxCell id="eWRBQ8og8PCyrHXCpCZj-7" value="&lt;font style=&quot;font-size: 18px&quot;&gt;id&lt;br&gt;name&lt;br&gt;email&lt;br&gt;password&lt;br&gt;created_at&lt;br&gt;updated_at&lt;/font&gt;" style="whiteSpace=wrap;html=1;" parent="eWRBQ8og8PCyrHXCpCZj-6" vertex="1">
                    <mxGeometry y="20" width="200" height="180" as="geometry"/>
                </mxCell>
                <mxCell id="9" value="" style="fontSize=12;html=1;endArrow=ERzeroToMany;endFill=1;edgeStyle=orthogonalEdgeStyle;entryX=1;entryY=0.5;entryDx=0;entryDy=0;" parent="eWRBQ8og8PCyrHXCpCZj-6" edge="1">
                    <mxGeometry width="100" height="100" relative="1" as="geometry">
                        <mxPoint y="109" as="sourcePoint"/>
                        <mxPoint x="-50" y="109.41" as="targetPoint"/>
                        <Array as="points">
                            <mxPoint x="-25" y="110"/>
                        </Array>
                    </mxGeometry>
                </mxCell>
                <mxCell id="6" value="" style="fontSize=12;html=1;endArrow=ERzeroToMany;endFill=1;edgeStyle=orthogonalEdgeStyle;" parent="1" edge="1">
                    <mxGeometry width="100" height="100" relative="1" as="geometry">
                        <mxPoint x="500" y="400" as="sourcePoint"/>
                        <mxPoint x="580" y="400" as="targetPoint"/>
                        <Array as="points">
                            <mxPoint x="540" y="400"/>
                        </Array>
                    </mxGeometry>
                </mxCell>
                <mxCell id="7" value="" style="fontSize=12;html=1;endArrow=ERzeroToMany;endFill=1;edgeStyle=orthogonalEdgeStyle;" parent="1" edge="1">
                    <mxGeometry width="100" height="100" relative="1" as="geometry">
                        <mxPoint x="399.47" y="210" as="sourcePoint"/>
                        <mxPoint x="399.41" y="280" as="targetPoint"/>
                        <Array as="points">
                            <mxPoint x="399.47" y="240"/>
                            <mxPoint x="399.47" y="240"/>
                        </Array>
                    </mxGeometry>
                </mxCell>
                <mxCell id="10" value="" style="fontSize=12;html=1;endArrow=ERzeroToMany;endFill=1;edgeStyle=orthogonalEdgeStyle;exitX=0.5;exitY=0;exitDx=0;exitDy=0;" parent="1" source="33" edge="1">
                    <mxGeometry width="100" height="100" relative="1" as="geometry">
                        <mxPoint x="730" y="510" as="sourcePoint"/>
                        <mxPoint x="400" y="480" as="targetPoint"/>
                        <Array as="points"/>
                    </mxGeometry>
                </mxCell>
                <mxCell id="23" value="Sheres テーブル" style="swimlane;" vertex="1" parent="1">
                    <mxGeometry x="299.99999999999994" y="280" width="200.00000000000006" height="200" as="geometry"/>
                </mxCell>
                <mxCell id="54" value="&lt;font size=&quot;3&quot;&gt;id&lt;br&gt;shere&lt;br&gt;user_id&lt;br&gt;artist_id&lt;br&gt;area_id&lt;br&gt;date_id&lt;br&gt;&lt;/font&gt;" style="rounded=0;whiteSpace=wrap;html=1;" vertex="1" parent="23">
                    <mxGeometry y="20" width="200" height="180" as="geometry"/>
                </mxCell>
                <mxCell id="24" value="Favorites テーブル" style="swimlane;startSize=30;" vertex="1" parent="1">
                    <mxGeometry x="580" y="10" width="200" height="200" as="geometry"/>
                </mxCell>
                <mxCell id="49" value="&lt;font size=&quot;3&quot;&gt;id&lt;br&gt;user_id&lt;br&gt;shere_id&lt;br&gt;&lt;/font&gt;" style="rounded=0;whiteSpace=wrap;html=1;" vertex="1" parent="24">
                    <mxGeometry y="30" width="200" height="170" as="geometry"/>
                </mxCell>
                <mxCell id="29" value="Comments テーブル" style="swimlane;startSize=30;" vertex="1" parent="1">
                    <mxGeometry x="580" y="280" width="200" height="200" as="geometry"/>
                </mxCell>
                <mxCell id="48" value="&lt;font size=&quot;3&quot;&gt;id&lt;br&gt;user_id&lt;br&gt;shere_id&lt;br&gt;contents&lt;br&gt;&lt;/font&gt;" style="rounded=0;whiteSpace=wrap;html=1;" vertex="1" parent="29">
                    <mxGeometry y="30" width="200" height="170" as="geometry"/>
                </mxCell>
                <mxCell id="30" value="Followers テーブル" style="swimlane;startSize=30;" vertex="1" parent="1">
                    <mxGeometry x="50" y="10" width="200" height="230" as="geometry"/>
                </mxCell>
                <mxCell id="43" value="&lt;font size=&quot;3&quot;&gt;id&lt;br&gt;follower_id&lt;br&gt;following_id&lt;br&gt;&lt;/font&gt;" style="rounded=0;whiteSpace=wrap;html=1;" vertex="1" parent="30">
                    <mxGeometry y="29" width="200" height="200" as="geometry"/>
                </mxCell>
                <mxCell id="31" value="" style="fontSize=12;html=1;endArrow=ERzeroToMany;endFill=1;edgeStyle=orthogonalEdgeStyle;" edge="1" parent="1">
                    <mxGeometry width="100" height="100" relative="1" as="geometry">
                        <mxPoint x="250" y="120" as="sourcePoint"/>
                        <mxPoint x="300" y="120" as="targetPoint"/>
                        <Array as="points">
                            <mxPoint x="285" y="120"/>
                        </Array>
                    </mxGeometry>
                </mxCell>
                <mxCell id="33" value="Dates テーブル" style="swimlane;" vertex="1" parent="1">
                    <mxGeometry x="299.99999999999994" y="520" width="200.00000000000006" height="200" as="geometry"/>
                </mxCell>
                <mxCell id="52" value="&lt;font size=&quot;3&quot;&gt;id&lt;br&gt;date&lt;br&gt;&lt;/font&gt;" style="rounded=0;whiteSpace=wrap;html=1;" vertex="1" parent="33">
                    <mxGeometry y="20" width="200" height="180" as="geometry"/>
                </mxCell>
                <mxCell id="34" value="Areas テーブル" style="swimlane;" vertex="1" parent="1">
                    <mxGeometry x="49.99999999999994" y="520" width="200.00000000000006" height="200" as="geometry"/>
                </mxCell>
                <mxCell id="22" value="" style="fontSize=12;html=1;endArrow=ERzeroToMany;endFill=1;edgeStyle=orthogonalEdgeStyle;exitX=0.545;exitY=0;exitDx=0;exitDy=0;exitPerimeter=0;" parent="34" source="34" edge="1">
                    <mxGeometry width="100" height="100" relative="1" as="geometry">
                        <mxPoint x="180.00000000000006" y="-40" as="sourcePoint"/>
                        <mxPoint x="310.00000000000006" y="-40" as="targetPoint"/>
                        <Array as="points"/>
                    </mxGeometry>
                </mxCell>
                <mxCell id="51" value="&lt;font size=&quot;3&quot;&gt;id&lt;br&gt;name&lt;br&gt;&lt;/font&gt;" style="rounded=0;whiteSpace=wrap;html=1;" vertex="1" parent="34">
                    <mxGeometry y="20" width="200" height="180" as="geometry"/>
                </mxCell>
                <mxCell id="35" value="Artists テーブル" style="swimlane;" vertex="1" parent="1">
                    <mxGeometry x="49.99999999999994" y="280" width="200.00000000000006" height="200" as="geometry"/>
                </mxCell>
                <mxCell id="53" value="&lt;font size=&quot;3&quot;&gt;id&lt;br&gt;name&lt;br&gt;&lt;/font&gt;" style="rounded=0;whiteSpace=wrap;html=1;" vertex="1" parent="35">
                    <mxGeometry y="20" width="200" height="180" as="geometry"/>
                </mxCell>
                <mxCell id="37" value="" style="fontSize=12;html=1;endArrow=ERzeroToMany;endFill=1;edgeStyle=orthogonalEdgeStyle;exitX=1;exitY=0.75;exitDx=0;exitDy=0;" edge="1" parent="1" source="eWRBQ8og8PCyrHXCpCZj-7">
                    <mxGeometry width="100" height="100" relative="1" as="geometry">
                        <mxPoint x="730" y="480" as="sourcePoint"/>
                        <mxPoint x="580" y="360" as="targetPoint"/>
                        <Array as="points">
                            <mxPoint x="540" y="165"/>
                            <mxPoint x="540" y="360"/>
                        </Array>
                    </mxGeometry>
                </mxCell>
                <mxCell id="38" value="" style="fontSize=12;html=1;endArrow=ERzeroToMany;endFill=1;edgeStyle=orthogonalEdgeStyle;" edge="1" parent="1">
                    <mxGeometry width="100" height="100" relative="1" as="geometry">
                        <mxPoint x="436" y="279" as="sourcePoint"/>
                        <mxPoint x="720" y="210" as="targetPoint"/>
                        <Array as="points">
                            <mxPoint x="436" y="279"/>
                            <mxPoint x="436" y="240"/>
                            <mxPoint x="720" y="240"/>
                        </Array>
                    </mxGeometry>
                </mxCell>
                <mxCell id="39" value="" style="fontSize=12;html=1;endArrow=ERzeroToMany;endFill=1;edgeStyle=orthogonalEdgeStyle;" edge="1" parent="1">
                    <mxGeometry width="100" height="100" relative="1" as="geometry">
                        <mxPoint x="250" y="400" as="sourcePoint"/>
                        <mxPoint x="300" y="400" as="targetPoint"/>
                        <Array as="points">
                            <mxPoint x="285" y="400"/>
                        </Array>
                    </mxGeometry>
                </mxCell>
                <mxCell id="40" value="" style="fontSize=12;html=1;endArrow=ERzeroToMany;endFill=1;edgeStyle=orthogonalEdgeStyle;" edge="1" parent="1">
                    <mxGeometry width="100" height="100" relative="1" as="geometry">
                        <mxPoint x="500.0000000000002" y="120" as="sourcePoint"/>
                        <mxPoint x="579.9999999999998" y="120" as="targetPoint"/>
                        <Array as="points">
                            <mxPoint x="540" y="120"/>
                        </Array>
                    </mxGeometry>
                </mxCell>
            </root>
        </mxGraphModel>
    </diagram>
</mxfile>